/* XPM */
static char * bottom_inactive_xpm[] = {
"16 6 3 1",
" 	c None",
".	c #000000",
"+	c #FFFFFF",
"................",
"++++++++++++++++",
"++++++++++++++++",
"++++++++++++++++",
"................",
"................"};
