/* XPM */
static char * bottom_left_inactive_xpm[] = {
"5 6 3 1",
" 	c None",
".	c #000000",
"+	c #FFFFFF",
".+++.",
".++++",
".++++",
".++++",
".....",
" ...."};
