/* XPM */
static char * left_inactive_xpm[] = {
"5 16 3 1",
" 	c None",
".	c #000000",
"+	c #FFFFFF",
".+++.",
".+++.",
".+++.",
".+++.",
".+++.",
".+++.",
".+++.",
".+++.",
".+++.",
".+++.",
".+++.",
".+++.",
".+++.",
".+++.",
".+++.",
".+++."};
