/* XPM */
static char * menu_active_xpm[] = {
"18 16 4 1",
" 	c None",
".	c #FFFFFF",
"+	c #B2B2B2",
"@	c #000000",
"..................",
"..++++++++++++++..",
"..+@@@@@@@@@@@@...",
"..+@..........@...",
"..+@.+++++++++@...",
"..+@@@@@@@@@@@@...",
"..+@..........@...",
"..+@.........+@...",
"..+@.........+@...",
"..+@.........+@...",
"..+@.........+@...",
"..+@.........+@...",
"..+@.+++++++++@...",
"..+@@@@@@@@@@@@...",
"..+...............",
".................."};
