/* XPM */
static char * right_inactive_xpm[] = {
"6 16 3 1",
" 	c None",
".	c #000000",
"+	c #FFFFFF",
".+++..",
".+++..",
".+++..",
".+++..",
".+++..",
".+++..",
".+++..",
".+++..",
".+++..",
".+++..",
".+++..",
".+++..",
".+++..",
".+++..",
".+++..",
".+++.."};
