/* XPM */
static char * title_3_inactive_xpm[] = {
"5 24 3 1",
" 	c None",
".	c #000000",
"+	c #FFFFFF",
".....",
"+++++",
"+++++",
"+++++",
"+++++",
"+++++",
"+++++",
"+++++",
"+++++",
"+++++",
"+++++",
"+++++",
"+++++",
"+++++",
"+++++",
"+++++",
"+++++",
"+++++",
"+++++",
"+++++",
"+++++",
"+++++",
"+++++",
"....."};
